HIERARCHY
ROOT hips
{
  OFFSET 0 10.6860622 2.3727825e-15
  CHANNELS 6 Xposition Yposition Zposition Yrotation Xrotation Zrotation
  JOINT leftUpperLeg
  {
    OFFSET 0.6642549969 -0.9402397400000004 0
    CHANNELS 3 Yrotation Xrotation Zrotation
    JOINT leftLowerLeg
    {
      OFFSET 0 -3.997221335632195 0
      CHANNELS 3 Yrotation Xrotation Zrotation
      JOINT leftFoot
      {
        OFFSET -0.13777839790000004 -4.6145792000000005 -0.22186036399999998
        CHANNELS 3 Yrotation Xrotation Zrotation
        JOINT leftToes
        {
          OFFSET -0.03777410834999995 -0.9130806927000008 0.85230013
          CHANNELS 3 Yrotation Xrotation Zrotation
          End Site
          {
            OFFSET -0.03777410834999995 -0.9130806927000008 0.85230013
          }
        }
      }
    }
  }
  JOINT rightUpperLeg
  {
    OFFSET -0.6642778626 -0.9402397400000004 0
    CHANNELS 3 Yrotation Xrotation Zrotation
    JOINT rightLowerLeg
    {
      OFFSET 0 -3.997221452859387 0
      CHANNELS 3 Yrotation Xrotation Zrotation
      JOINT rightFoot
      {
        OFFSET 0.1377926176 -4.6145792000000005 -0.22185782299999995
        CHANNELS 3 Yrotation Xrotation Zrotation
        JOINT rightToes
        {
          OFFSET 0.037780746850000047 -0.9130806927000008 0.85230167
          CHANNELS 3 Yrotation Xrotation Zrotation
          End Site
          {
            OFFSET 0.037780746850000047 -0.9130806927000008 0.85230167
          }
        }
      }
    }
  }
  JOINT spine
  {
    OFFSET 0 0.13988381660000015 0
    CHANNELS 3 Yrotation Xrotation Zrotation
    JOINT chest
    {
      OFFSET 0 0.6191039003973773 0
      CHANNELS 3 Yrotation Xrotation Zrotation
      JOINT upperChest
      {
        OFFSET 0 0.9855186130586943 0
        CHANNELS 3 Yrotation Xrotation Zrotation
        JOINT leftShoulder
        {
          OFFSET 0.1807663869 1.5087829790000005 0
          CHANNELS 3 Yrotation Xrotation Zrotation
          JOINT leftUpperArm
          {
            OFFSET 0.5985063006419806 0 0
            CHANNELS 3 Yrotation Xrotation Zrotation
            JOINT leftLowerArm
            {
              OFFSET 2.2993332369501065 0 0
              CHANNELS 3 Yrotation Xrotation Zrotation
              JOINT leftHand
              {
                OFFSET 2.395047042602395 0 0
                CHANNELS 3 Yrotation Xrotation Zrotation
                JOINT leftIndexProximal
                {
                  OFFSET 0.5766295810000004 0.04556643899499946 0.17265095988184
                  CHANNELS 3 Yrotation Xrotation Zrotation
                  JOINT leftIndexIntermediate
                  {
                    OFFSET 0.2957229000000008 -0.019352197700001517 -0.007932640616999987
                    CHANNELS 3 Yrotation Xrotation Zrotation
                    JOINT leftIndexDistal
                    {
                      OFFSET 0.19008243099999922 -0.012484908149998475 -0.002786250786000012
                      CHANNELS 3 Yrotation Xrotation Zrotation
                      End Site
                      {
                        OFFSET 0.19008243099999922 -0.012484908149998475 -0.002786250786000012
                      }
                    }
                  }
                }
                JOINT leftMiddleProximal
                {
                  OFFSET 0.5834975091000001 0.0524350405149987 0.02204081888183999
                  CHANNELS 3 Yrotation Xrotation Zrotation
                  JOINT leftMiddleIntermediate
                  {
                    OFFSET 0.33880573540000003 -0.019871473270000717 -0.00000971183179999946
                    CHANNELS 3 Yrotation Xrotation Zrotation
                    JOINT leftMiddleDistal
                    {
                      OFFSET 0.20676022730000088 -0.012221336379999448 0.0001471936708000235
                      CHANNELS 3 Yrotation Xrotation Zrotation
                      End Site
                      {
                        OFFSET 0.20676022730000088 -0.012221336379999448 0.0001471936708000235
                      }
                    }
                  }
                }
                JOINT leftLittleProximal
                {
                  OFFSET 0.5344154683999995 -0.012880921405001189 -0.24414037221816004
                  CHANNELS 3 Yrotation Xrotation Zrotation
                  JOINT leftLittleIntermediate
                  {
                    OFFSET 0.21758961730000093 -0.011650919939999227 0.011893592810000034
                    CHANNELS 3 Yrotation Xrotation Zrotation
                    JOINT leftLittleDistal
                    {
                      OFFSET 0.1475273964999999 -0.008152365682999818 0.006001092492999946
                      CHANNELS 3 Yrotation Xrotation Zrotation
                      End Site
                      {
                        OFFSET 0.1475273964999999 -0.008152365682999818 0.006001092492999946
                      }
                    }
                  }
                }
                JOINT leftRingProximal
                {
                  OFFSET 0.5799399463000003 0.026911854694997794 -0.12150566991816003
                  CHANNELS 3 Yrotation Xrotation Zrotation
                  JOINT leftRingIntermediate
                  {
                    OFFSET 0.26167887460000006 -0.013480186499999602 0.010996293000000053
                    CHANNELS 3 Yrotation Xrotation Zrotation
                    JOINT leftRingDistal
                    {
                      OFFSET 0.17667108799999987 -0.008990287899999228 0.0055541023999999065
                      CHANNELS 3 Yrotation Xrotation Zrotation
                      End Site
                      {
                        OFFSET 0.17667108799999987 -0.008990287899999228 0.0055541023999999065
                      }
                    }
                  }
                }
                JOINT leftThumbProximal
                {
                  OFFSET 0.11018806699999972 -0.09448718900500053 0.17047963138184
                  CHANNELS 3 Yrotation Xrotation Zrotation
                  JOINT leftThumbIntermediate
                  {
                    OFFSET 0.31062601459999983 -0.08126270900000132 0.15443142000000007
                    CHANNELS 3 Yrotation Xrotation Zrotation
                    JOINT leftThumbDistal
                    {
                      OFFSET 0.21627175790000086 -0.08833193599999878 0.018771167799999988
                      CHANNELS 3 Yrotation Xrotation Zrotation
                      End Site
                      {
                        OFFSET 0.21627175790000086 -0.08833193599999878 0.018771167799999988
                      }
                    }
                  }
                }
              }
            }
          }
        }
        JOINT neck
        {
          OFFSET 0 1.5463305265074576 0
          CHANNELS 3 Yrotation Xrotation Zrotation
          JOINT head
          {
            OFFSET 0 0.8456443600000344 0
            CHANNELS 3 Yrotation Xrotation Zrotation
            JOINT leftEye
            {
              OFFSET 0.30408573140000006 0.5104519199999995 0.1276382305
              CHANNELS 3 Yrotation Xrotation Zrotation
              End Site
              {
                OFFSET 0.30408573140000006 0.5104519199999995 0.1276382305
              }
            }
            JOINT rightEye
            {
              OFFSET -0.30409491089999996 0.5104519199999995 0.1276379445
              CHANNELS 3 Yrotation Xrotation Zrotation
              End Site
              {
                OFFSET -0.30409491089999996 0.5104519199999995 0.1276379445
              }
            }
            JOINT jaw
            {
              OFFSET -3.155239131000001e-7 -0.11984121820000082 0.60178107
              CHANNELS 3 Yrotation Xrotation Zrotation
              End Site
              {
                OFFSET -3.155239131000001e-7 -0.11984121820000082 0.60178107
              }
            }
          }
        }
        JOINT rightShoulder
        {
          OFFSET -0.1807303465 1.5087829790000005 0
          CHANNELS 3 Yrotation Xrotation Zrotation
          JOINT rightUpperArm
          {
            OFFSET -0.5985063796536958 0 0
            CHANNELS 3 Yrotation Xrotation Zrotation
            JOINT rightLowerArm
            {
              OFFSET -2.2993322059002854 0 0
              CHANNELS 3 Yrotation Xrotation Zrotation
              JOINT rightHand
              {
                OFFSET -2.395045314457259 0 0
                CHANNELS 3 Yrotation Xrotation Zrotation
                JOINT rightIndexProximal
                {
                  OFFSET -0.5764487688300002 0.0441371204405987 0.17361932004999997
                  CHANNELS 3 Yrotation Xrotation Zrotation
                  JOINT rightIndexIntermediate
                  {
                    OFFSET -0.29573011380000047 -0.01934826376999843 -0.007698921482999974
                    CHANNELS 3 Yrotation Xrotation Zrotation
                    JOINT rightIndexDistal
                    {
                      OFFSET -0.19008373999999884 -0.012503266380000655 -0.0026365778999999897
                      CHANNELS 3 Yrotation Xrotation Zrotation
                      End Site
                      {
                        OFFSET -0.19008373999999884 -0.012503266380000655 -0.0026365778999999897
                      }
                    }
                  }
                }
                JOINT rightMiddleProximal
                {
                  OFFSET -0.5834852037300005 0.05211639405060153 0.02307162440000001
                  CHANNELS 3 Yrotation Xrotation Zrotation
                  JOINT rightMiddleIntermediate
                  {
                    OFFSET -0.33880114510000003 -0.019952774050000954 0.0002455003561999819
                    CHANNELS 3 Yrotation Xrotation Zrotation
                    JOINT rightMiddleDistal
                    {
                      OFFSET -0.20675694929999955 -0.012273788999999091 0.00030209124000002766
                      CHANNELS 3 Yrotation Xrotation Zrotation
                      End Site
                      {
                        OFFSET -0.20675694929999955 -0.012273788999999091 0.00030209124000002766
                      }
                    }
                  }
                }
                JOINT rightLittleProximal
                {
                  OFFSET -0.5346811737299992 -0.011214256288399227 -0.24363941305000003
                  CHANNELS 3 Yrotation Xrotation Zrotation
                  JOINT rightLittleIntermediate
                  {
                    OFFSET -0.21757715980000092 -0.011771559690000988 0.01201554387
                    CHANNELS 3 Yrotation Xrotation Zrotation
                    JOINT rightLittleDistal
                    {
                      OFFSET -0.1475201849000004 -0.00822055339600003 0.006082065407000015
                      CHANNELS 3 Yrotation Xrotation Zrotation
                      End Site
                      {
                        OFFSET -0.1475201849000004 -0.00822055339600003 0.006082065407000015
                      }
                    }
                  }
                }
                JOINT rightRingProximal
                {
                  OFFSET -0.5800810755299999 0.027657985680600072 -0.12066365025000003
                  CHANNELS 3 Yrotation Xrotation Zrotation
                  JOINT rightRingIntermediate
                  {
                    OFFSET -0.26166445029999974 -0.013623118409999302 0.011164098990000045
                    CHANNELS 3 Yrotation Xrotation Zrotation
                    JOINT rightRingDistal
                    {
                      OFFSET -0.17666387530000027 -0.009072900100000503 0.005668185599999959
                      CHANNELS 3 Yrotation Xrotation Zrotation
                      End Site
                      {
                        OFFSET -0.17666387530000027 -0.009072900100000503 0.005668185599999959
                      }
                    }
                  }
                }
                JOINT rightThumbProximal
                {
                  OFFSET -0.10997596379000074 -0.09577489355940072 0.16989765924999997
                  CHANNELS 3 Yrotation Xrotation Zrotation
                  JOINT rightThumbIntermediate
                  {
                    OFFSET -0.31036620999999986 -0.08229339117999834 0.15440884469999996
                    CHANNELS 3 Yrotation Xrotation Zrotation
                    JOINT rightThumbDistal
                    {
                      OFFSET -0.21631306399999906 -0.08825326400000111 0.018656797720000014
                      CHANNELS 3 Yrotation Xrotation Zrotation
                      End Site
                      {
                        OFFSET -0.21631306399999906 -0.08825326400000111 0.018656797720000014
                      }
                    }
                  }
                }
              }
            }
          }
        }
      }
    }
  }
}
MOTION
Frames: 5
Frame Time: 0.03333333333333333
3.7318071947056253 -9.584676908741123 -4.717420375131133 -103.01092535555843 -0.015789088036491716 -89.99991815651681 7.837631329033062 -72.84402789118953 -14.274178707612183 4.271872457067934 36.39319959050889 10.123788480026656 0.955995962791624 8.89402747491898 2.794898494120792 0 0 0 0.3408709095585644 -23.672684454207772 14.550911653697701 -24.31650588802154 7.764053872221851 -6.000152251393368 -1.3152254354976403 40.446930298436016 -4.640152829905223 0 0 0 -1.0137407420771332 -12.929056659739715 -0.766036761843434 -0.9206635492029008 10.399744131394396 11.73798818939198 0 0 0 -35.84899851747055 -14.214392575053937 -8.525864350203321 -1.313315000393948 -23.464793698690322 -49.415398552340456 -65.77060802109263 6.445571970356953 26.314783488187 -1.637886095548056 1.0848881907160417 2.0069669508267167 0 0 0 0 0 0 0 0 0 0 0 0 0 0 0 0 0 0 0 0 0 0 0 0 0 0 0 0 0 0 0 0 0 0 0 0 0 0 0 0 0 0 0 0 0 -0.0015518358122589629 15.554659220265727 -0.012571136416410958 -0.002822893830590615 -4.798612870180506 -0.04020185541801934 0 0 0 0 0 0 0 0 0 29.114582761805742 -1.3698817247027752 -26.413549197254937 26.436788155256536 -33.42073698009933 24.105250660030983 115.39153359537549 -32.007647769648806 -44.727525240999945 6.885825653358543 18.93435537334199 44.785077247333156 0 0 0 0 0 0 0 0 0 0 0 0 0 0 0 0 0 0 0 0 0 0 0 0 0 0 0 0 0 0 0 0 0 0 0 0 0 0 0 0 0 0 0 0 0
3.7318071947056253 -9.584676908741123 -4.726518604736137 -103.01092535555843 -0.015789088036491716 -89.99991815651681 7.837631329033062 -72.84402789118953 -14.274178707612183 4.3004122307041674 36.54412622910056 10.171584179238556 0.955995962791624 8.89402747491898 2.794898494120792 0 0 0 0.2862350223857205 -23.86764843098317 14.57717214531671 -24.33940491491244 8.169379386814049 -6.1648410979975505 -1.2644384781889824 40.25221237361323 -4.54784431923361 0 0 0 -1.0137407420771332 -12.929056659739715 -0.766036761843434 -0.9201612788019359 10.199798956741278 11.741232422753523 0 0 0 -36.050102413932045 -14.189993907916577 -8.613563898482631 -1.2513104843456428 -23.43486630881555 -49.24870311149333 -65.66679577592765 6.394097042878409 26.37457066504303 -1.580045283330048 1.045162389660981 1.9358220898555496 0 0 0 0 0 0 0 0 0 0 0 0 0 0 0 0 0 0 0 0 0 0 0 0 0 0 0 0 0 0 0 0 0 0 0 0 0 0 0 0 0 0 0 0 0 -0.0016158141059632663 16.089708770986917 -0.012598578719763245 -0.0027728822122597813 -3.873515737548706 -0.04024430499212607 0 0 0 0 0 0 0 0 0 29.283948091565637 -1.157980524112234 -26.341087766840207 26.34695833233527 -33.41147396569661 23.9797253905193 115.31518920049218 -32.07305904246332 -44.88684592541089 6.881604966791015 18.92171204641853 44.86443691482493 0 0 0 0 0 0 0 0 0 0 0 0 0 0 0 0 0 0 0 0 0 0 0 0 0 0 0 0 0 0 0 0 0 0 0 0 0 0 0 0 0 0 0 0 0
3.7318071947056253 -9.584676908741123 -4.735616834341142 -103.01092535555843 -0.015789088036491716 -89.99991815651681 7.837631329033062 -72.84402789118953 -14.274178707612183 4.3291654507946244 36.69502866685444 10.219567202956236 0.955995962791624 8.89402747491898 2.794898494120792 0 0 0 0.23141859574662388 -24.06258848016908 14.603675039931495 -24.36350786965441 8.574638622817185 -6.3298657983786475 -1.2142070813978036 40.05742843586739 -4.4560256874590465 0 0 0 -1.0137407420771332 -12.929056659739715 -0.766036761843434 -0.91967072398291 9.999853539387889 11.744472539563754 0 0 0 -36.25122237068911 -14.16589373225066 -8.701340782361207 -1.1892254466814698 -23.40510570843086 -49.08200918669333 -65.56305010716952 6.342514334649868 26.43425787826976 -1.522156099725771 1.0055084989112593 1.864638028786294 0 0 0 0 0 0 0 0 0 0 0 0 0 0 0 0 0 0 0 0 0 0 0 0 0 0 0 0 0 0 0 0 0 0 0 0 0 0 0 0 0 0 0 0 0 -0.0016802354882236603 16.62475822551345 -0.012626719553754854 -0.002723604627147132 -2.948418879275023 -0.04028590746533033 0 0 0 0 0 0 0 0 0 29.453569630222773 -0.9462945467384571 -26.26800136042532 26.257115446464603 -33.40237557055058 23.854194782902184 115.23900328264267 -32.138646203850946 -45.04617420585166 6.877366968175139 18.909075090685477 44.94379452401707 0 0 0 0 0 0 0 0 0 0 0 0 0 0 0 0 0 0 0 0 0 0 0 0 0 0 0 0 0 0 0 0 0 0 0 0 0 0 0 0 0 0 0 0 0
3.7318071947056253 -9.584676908741123 -4.753813561943423 -103.01092535555843 -0.015789088036491716 -89.99991815651681 7.837631329033062 -72.84402789118953 -14.274178707612183 4.387323237000314 36.99681588500126 10.316111695864295 0.955995962791624 8.89402747491898 2.794898494120792 0 0 0 0.1212219056314233 -24.45244855913267 14.657422771059204 -24.41538283251565 9.385415140073334 -6.661185432614141 -1.115371995925284 39.66762920648417 -4.2738079663277535 0 0 0 -1.0137407420771332 -12.929056659739715 -0.766036761843434 -0.9187260072289745 9.599908090978147 11.75094643152046 0 0 0 -36.65359873076788 -14.11858317704266 -8.877160544713101 -1.0648022275939144 -23.346069516358085 -48.74858332577637 -65.3557729239655 6.239023391059654 26.553339379909815 -1.4062281484643562 0.9264146541063402 1.722147956986574 0 0 0 0 0 0 0 0 0 0 0 0 0 0 0 0 0 0 0 0 0 0 0 0 0 0 0 0 0 0 0 0 0 0 0 0 0 0 0 0 0 0 0 0 0 -0.0018096244861448016 17.69579209590717 -0.012686058773055951 -0.0026254774814756386 -1.093349869194207 -0.04036790192682061 0 0 0 0 0 0 0 0 0 29.793683277516475 -0.5234733540982346 -26.119924693531214 26.077371060088776 -33.38467243122712 23.603096894228674 115.08709682052131 -32.270394486355244 -45.364919200216995 6.868837779804873 18.883814870514435 45.10250934102222 0 0 0 0 0 0 0 0 0 0 0 0 0 0 0 0 0 0 0 0 0 0 0 0 0 0 0 0 0 0 0 0 0 0 0 0 0 0 0 0 0 0 0 0 0
3.7318071947056253 -9.584676908741123 -4.7629120599406995 -103.01092535555843 -0.015789088036491716 -89.99991815651681 7.837631329033062 -72.84402789118953 -14.274178707612183 4.416729332984019 37.14768555888573 10.364675685437732 0.955995962791624 8.89402747491898 2.794898494120792 0 0 0 0.06583775123810966 -24.647367417705762 14.684672633579343 -24.443159018689357 9.790876646318852 -6.82749655464499 -1.0667598272521015 39.472628433128925 -4.183399493725262 0 0 0 -1.0137407420771332 -12.929056659739715 -0.766036761843434 -0.9182711182070513 9.399914509689511 11.754178755737781 0 0 0 -36.85484067816549 -14.095376125455866 -8.965195867978254 -1.0024650359687477 -23.31680113071414 -48.581855119410356 -65.2522188429559 6.187113418556193 26.61273099473833 -1.348189609246863 0.886974604024066 1.6508420464336793 0 0 0 0 0 0 0 0 0 0 0 0 0 0 0 0 0 0 0 0 0 0 0 0 0 0 0 0 0 0 0 0 0 0 0 0 0 0 0 0 0 0 0 0 0 -0.001875165229412827 18.231685494951044 -0.012716430677834657 -0.002577534268857104 -0.16385631479980894 -0.0404072447481751 0 0 0 0 0 0 0 0 0 29.964172518924183 -0.31235458232039 -26.04493595648229 25.98746450767739 -33.376063496545754 23.477527445322796 115.01141162031387 -32.33654044670694 -45.52434459952535 6.864544357129678 18.871191602783274 45.181854133333935 0 0 0 0 0 0 0 0 0 0 0 0 0 0 0 0 0 0 0 0 0 0 0 0 0 0 0 0 0 0 0 0 0 0 0 0 0 0 0 0 0 0 0 0 0
